<svg version="1.2" xmlns="http://www.w3.org/2000/svg" viewBox="0 0 3017 441" width="3017" height="441"><style>.a{fill:#3b82f6;stroke:#3b82f6;stroke-linejoin:round;stroke-width:20}</style><path class="a" d="m270.9 151.6l-4.1 72.3q-27.1-11.3-53.2-17.5-25.8-6.3-45.4-6.3-20.6 0-29.3 3.6-8.7 3.5-8.7 12.3 0 7.9 12.8 12.6 12.7 4.4 37.5 10.3 24.7 5.9 44.2 13 19.6 7.1 33.1 17.7 13.9 10.6 21 25.3 7.3 14.8 7.3 36.1 0 19.2-8.2 35.2-8.1 15.7-24.7 27-16.5 11.3-41.8 17.5-25.2 6.1-59.5 6.1-30.4 0-61.1-3.9-30.6-4.2-61.9-14.5v-76q28 11.1 56.2 17.7 28.3 6.7 53.8 6.7 45.9 0 45.9-17.2 0-3-2.2-5.4-2.1-2.5-8.1-4.7-5.7-2.5-16.3-4.9-10.3-2.7-26.6-6.4-22.6-4.9-42.7-12.6-19.8-7.8-34.7-18.9-14.7-11.3-23.4-26.3-8.4-15-8.4-34.1 0-17.2 7.9-31.7 8.1-14.5 24.2-24.9 16.2-10.3 40.1-15.9 24.2-5.9 56-5.9 18.4 0 35.3 1.4 17.1 1.5 32.3 3.7 15.2 2 28.2 4.5 13.4 2.2 24.5 4.1zm65 258.1v-377.5h117.4v148.7q7.6-9.6 19.5-17.5 12-7.8 26.3-13.5 14.4-5.9 30.5-8.8 16-3.2 32-3.2 19.8 0 37.2 5.9 17.7 5.6 30.7 18.4 13 12.8 20.4 32.9 7.6 19.9 7.6 48.2v166.4h-117.3v-140.1q0-18.4-3.6-30.7-3.2-12.3-8.7-19.7-5.4-7.6-12.5-10.5-6.7-3.2-13.8-3.2-8.2 0-16.3 2.9-7.9 2.7-14.7 7.9-6.5 5.1-11.1 12.3-4.6 7.1-6.2 15.7v165.4zm535.4 7.1q-32.1 0-57.1-5.4-25-5.4-43.7-15-18.7-9.6-32-22.6-13.1-13.3-21.2-28.8-8.2-15.4-12-32.6-3.5-17.2-3.5-34.9 0-17.5 3.5-34.4 3.8-17.2 12-32.7 8.1-15.8 21.2-28.8 13-13.3 31.7-22.8 19-9.9 44-15.3 25-5.6 57.1-5.6 32 0 57 5.6 25 5.4 43.7 15.3 19 9.5 32 22.8 13.1 13 21.2 28.8 8.2 15.5 11.7 32.7 3.8 16.9 3.8 34.4 0 17.7-3.8 34.9-3.5 17.2-11.7 32.6-8.1 15.5-21.4 28.8-13.1 13-31.8 22.6-18.7 9.6-43.7 15-25 5.4-57 5.4zm-52.2-139.3q0 13.2 2.7 26 2.7 12.5 8.7 22.6 6.3 9.9 16 16 10.1 5.9 24.8 5.9 14.6 0 24.4-5.9 10-6.1 16-16 6.3-10.1 9-22.6 2.7-12.8 2.7-26 0-13.3-2.7-25.8-2.7-12.8-9-22.7-6-10-16-16.2-9.8-6.1-24.4-6.1-14.7 0-24.8 6.1-9.7 6.2-16 16.2-6 9.9-8.7 22.7-2.7 12.5-2.7 25.8zm314.9 132.2l-70.3-265.2h124.9l43.7 201 43.7-201h127.7l48.8 201 31-201h92.9l-60.9 265.2h-150.9l-37.8-171.6-34.2 171.6zm582.4-132.2q0 17.9 4.6 31.2 4.9 13.2 13.6 22.1 8.7 8.6 20.9 13 12.2 4.2 27.4 4.2 19.6 0 36.9-4.7 17.4-4.9 35.6-13.2l17.4 63.9q-12 5.6-25.8 10-13.9 4.2-28.5 7.2-14.7 2.7-29.9 4.1-14.9 1.5-29.3 1.5-32.9 0-61.9-8.3-29.1-8.4-51.1-25.6-21.7-17.2-34.5-43.5-12.7-26.3-12.7-62.2 0-35.9 12.7-62.2 12.8-26.3 34.5-43.5 22-17.2 51.1-25.5 29-8.4 61.9-8.4 14.4 0 29.3 1.5 15.2 1.5 29.9 4.4 14.6 2.7 28.5 7.2 13.8 4.1 25.8 9.8l-17.4 63.9q-18.2-8.4-35.6-13-17.3-5-36.9-5-15.2 0-27.4 4.5-12.2 4.1-20.9 13-8.7 8.8-13.6 22.4-4.6 13.2-4.6 31.2zm364.8 139.3q-32 0-57-5.4-25-5.4-43.7-15-18.8-9.6-32.1-22.6-13-13.3-21.1-28.8-8.2-15.4-12-32.6-3.5-17.2-3.5-34.9 0-17.5 3.5-34.4 3.8-17.2 12-32.7 8.1-15.8 21.1-28.8 13.1-13.3 31.8-22.8 19-9.9 44-15.3 25-5.6 57-5.6 32.1 0 57.1 5.6 24.9 5.4 43.7 15.3 19 9.5 32 22.8 13.1 13 21.2 28.8 8.2 15.5 11.7 32.7 3.8 16.9 3.8 34.4 0 17.7-3.8 34.9-3.5 17.2-11.7 32.6-8.1 15.5-21.4 28.8-13.1 13-31.8 22.6-18.8 9.6-43.7 15-25 5.4-57.1 5.4zm-52.1-139.3q0 13.2 2.7 26 2.7 12.5 8.7 22.6 6.2 9.9 16 16 10.1 5.9 24.7 5.9 14.7 0 24.5-5.9 10-6.1 16-16 6.2-10.1 9-22.6 2.7-12.8 2.7-26 0-13.3-2.7-25.8-2.8-12.8-9-22.7-6-10-16-16.2-9.8-6.1-24.5-6.1-14.6 0-24.7 6.1-9.8 6.2-16 16.2-6 9.9-8.7 22.7-2.7 12.5-2.7 25.8zm403.9 139.3q-26.6 0-50.7-8.1-23.9-8.1-42.1-25.1-18-17.2-28.8-43.5-10.6-26.3-10.6-62.6 0-38.4 10.8-64.9 11.2-26.8 29.1-43.3 17.9-16.7 41-24.1 23.1-7.3 47.5-7.3 15.5 0 31 3.2 15.5 3.2 29 9.1 13.6 5.6 24.5 13.5 10.8 7.8 17.1 17.2v-148.7h117.3v377.5h-117.3v-43.8q-7.3 12.1-17.9 21.7-10.6 9.3-23.7 15.9-12.7 6.4-27.1 9.9-14.4 3.4-29.1 3.4zm-14.9-139.1q0 20.2 4.9 33.7 4.9 13.5 12.7 21.8 8.2 8.2 18.2 11.8 10.4 3.5 21 3.5 10.5 0 20.6-3.5 10-3.6 17.9-11.8 7.9-8.3 12.5-21.8 4.9-13.8 4.9-33.9 0-19.9-4.9-33.5-4.6-13.7-12.5-22.1-7.9-8.3-17.9-11.8-9.8-3.7-20.4-3.7-10.6 0-20.9 3.7-10 3.5-18.2 11.8-8.1 8.4-13 22.1-4.9 13.6-4.9 33.7zm569.6 51.6v69.8q-25.5 7.6-55.1 12.8-29.6 4.9-61.7 4.9-35 0-66.8-8.3-31.7-8.4-55.9-26.1-24.2-17.7-38.6-44.7-14.1-27.3-14.1-64.9 0-21.4 7.3-39.6 7.4-18.4 19.9-33.4 12.7-15 29.6-26.5 17.1-11.6 36.4-19.5 19.5-7.8 40.1-11.7 20.7-4.2 40.5-4.2 31.2 0 55.1 6.4 23.9 6.1 39.7 16.7 16 10.5 24.2 24.6 8.1 14 8.1 29.7 0 19.2-7.3 32.7-7.1 13.5-19.3 22.8-12 9.1-28 14.5-15.7 5.2-33.4 8.1-17.6 2.7-36.1 3.5-18.2 0.7-34.8 0.7-5.7 0-11.1 0-5.2-0.2-10.3-0.2 2.2 14 8.4 23.6 6.5 9.5 16 15.7 9.8 5.9 22.3 8.6 12.8 2.4 27.1 2.4 10.9 0 23.1-1.4 12.5-1.5 25-4 12.8-2.7 25.3-5.9 12.7-3.4 24.4-7.1zm-174.1-69.8q6.6-0.2 16.6-0.7 10.3-0.5 21.7-1.7 11.4-1.3 22.8-3.5 11.4-2.2 20.7-5.6 9.2-3.5 14.9-8.6 5.7-5.2 5.7-12.6 0-12.5-11.1-19.9-10.9-7.6-30.4-7.6-9 0-19.3 2.5-10.3 2.2-19.3 8.8-9 6.7-15.2 18.4-6.2 11.8-7.1 30.5z"/></svg>